<svg xmlns="http://www.w3.org/2000/svg" viewBox="0 0 512 320">
    <path fill="#71c9d2" d="M512 108v212H0V108c4.28 0 7.82 1.35 9.77 5.5.43.92.87 2 1.89 2.19 3.25.55 5.31 3.06 7.79 4.85 3.44-5.16 3.79-5.23 9-2.83 2 .9 4 1.61 6 2.49 1 .42 1.88.83 2.82.15 3.15-2.29 7.58-.1 10.57-3.09.53-.53 1.68-.18 2.34.36 4.75 3.93 10.93 4.52 16.29 7 2.14 1 4.36 1.44 6.57-.09a2.65 2.65 0 0 1 3.28.16c3.78 3.1 8.45 3.44 13 4.33.89.18 2 .1 1.87 1.94-3-.88-5.16 2.68-7.87 1.89-4.7-1.37-8.68 1-13 1.58-.8.1-1.65.69-2.41.32-4.55-2.25-9-.57-13.53.09-2.95.43-4.58 2-6.53 4.82 4.14.14 6.7 2.12 9.06 4.53 2.8 2.85 6.54 2.61 10.17 3.09 2.13.27 3.61.54 5.39-1.05 3.53-3.16 7.62-3.17 11.49-.65A8.53 8.53 0 0 0 89 147c1.32 0 2.85-.31 4 .22 2.63 1.29 3.9 0 5.29-1.91.89-1.2 2.13-2.11 3.13-3.23 2.17-2.41 4.88-3 8.06-3.18 4-.17 6.25 2.58 9 4.69a40.21 40.21 0 0 1 2.49-4c5-6.31 11.8-6.38 16.89-.19.83 1 1.38 2.27 2.12 3.36 1.09 1.59 2.47 1.55 3.78.36.85-.78 1.46-1.81 2.27-2.65 4.7-4.89 11.62-6.8 16.36-.59 1.23 1.6 2.27 1.37 4.13.51a16.82 16.82 0 0 1 15.33.17 14.62 14.62 0 0 0 8.94 1.67c4.15-.52 8.36-.94 11.64 2.63a4.33 4.33 0 0 0 3.19 1.13c4.66.31 8.52 3 12.75 4.53 3.83 1.39 7.12 3.59 11.46 1.16 3.18-1.78 6.42-.68 9.17 1.77s2.95 2.52 6.24-.19c3.9-3.21 8-3.19 11.69.19 1.44 1.31 2.69 2.82 4.11 4.32 1.14-1.26 2.08-2.39 3.11-3.43 4.25-4.28 7.79-4.53 12.77-.93 2.59 1.87 5.23 1.33 7.11-1.46 2.5-3.72 5.07-4.61 9.37-3.23 1.06.34 2.07 1.27 3.19.15 2.71-2.73 6-4 9.49-2.19s6.68-2.36 10-.13a1.57 1.57 0 0 0 .45.22c3.29.86 6.9-.26 10.06 1.61.21.12.82-.46 1.26-.69a28.22 28.22 0 0 1 3.12-1.54c3.24-1.2 5-3 4.18-4.33s-3.72-1.53-6.36-.06c-.29.16-.51.44-.8.6-4.47 2.61-8.11 1.85-11.33-2.28-.87-1.12-1-2.76-2.61-3.56-1.95 1.92-4 3.54-6.94 3.45s-4.58-2.36-6.7-3.56c-6.86 5.44-11.08 4.88-15.2-2.09-1.12-1.9-2.89-2.68-4.48-3.79s-2.28.95-3.51 1.2a7.34 7.34 0 0 1-2.46.19c-4.12-.68-8.36 2.65-12.43-.37-.22-.17-.93.25-1.37.47-5.83 2.79-11.19-.35-16.14-2.2-4.11-1.55-8.91-2.06-12.42-5.41-.83-.8-2.87-.37-4.36-.42s-3.15 0-4.28-1.8c3.73-.3 7.64-.23 10.24-2.42 3.65-3.08 7.57-3.11 11.66-2.61a3.86 3.86 0 0 0 3.92-1.26c2.61-3 6-3.4 9.6-2.69a9.42 9.42 0 0 0 7.86-1.75c4.75-3.54 7.05-3.51 12.05.14 1 .7 1.A84 1.63 3.09 1.14 3.13-1.22 6.16-.82 9.27.12a5.48 5.48 0 0 0 4.32-.78 7.78 7.78 0 0 1 6.74-.72 4.2 4.2 0 0 0 4.52-.83c3.2-2.43 4.86-2.12 7.76.72.68.67.87 1.81 1.94 2.07a3.2 3.2 0 0 0 1.83-1.66c3.13-5.8 3.13-5.91 9.46-5.11 1.76.22 2.33-.6 3.08-1.79 3.94-6.26 5.6-6.83 12.48-4.28 1.21-2.72 3.84-3.82 6.42-5 3.23-1.44 5.74.2 8.27 2a1.58 1.58 0 0 0 2.68-1c.78-3.42 3.36-5.21 6.08-6.89 4.9-3 15.23-.32 18.11 4.68.64 1.1.43 2.67 2.18 3.55 2.59-3.35 5.36-6.52 10.42-5.84s6.85 4.46 7.92 8.78c2.11-.49 4.09-1.45 5.66-.41 2.93 2 6 1.87 9.27 2a12.85 12.85 0 0 0 5.64-.86c2.58-1.08 4.93-.26 7 1.38a8 8 0 0 1 2.85 5.64c.19 1.62.93 2.19 2.75 1.65 6-1.81 7.17-1.32 10.68 3.86 1.87 2.76 3.88 2.89 6.62.43 3-2.72 5.56-3.21 9.08-1.23a5.81 5.81 0 0 0 4.6.89 5.13 5.13 0 0 1 3.84.76c1.61 1 2.44.45 3.58-1.08 3.42-4.57 6.91-4.94 11.49-1.47 1.23.94 2.34 1.87 4 1.71 4.65-.43 7.56 1.85 9.38 5.91.2.44.61.82 1.6.35.11-5.66 2.17-10.41 8.3-12.29z"/>
    <path fill="#61a4c2" d="M512 108c-6.13 1.88-8.19 6.63-8.33 12.25-1 .47-1.4.09-1.6-.35-1.82-4.06-4.73-6.34-9.38-5.91-1.64.16-2.75-.77-4-1.71-4.58-3.47-8.07-3.1-11.49 1.47-1.14 1.53-2 2-3.58 1.08a5.13 5.13 0 0 0-3.84-.76 5.81 5.81 0 0 1-4.6-.89c-3.52-2-6.05-1.49-9.08 1.23-2.74 2.46-4.75 2.33-6.62-.43-3.51-5.18-4.65-5.67-10.68-3.86-1.82.54-2.56 0-2.75-1.65a8 8 0 0 0-2.85-5.64c-2.05-1.64-4.4-2.46-7-1.38a12.85 12.85 0 0 1-5.64.86c-3.31-.1-6.34 0-9.27-2-1.57-1-3.55-.08-5.66.41-1.07-4.32-2.71-8.09-7.92-8.78s-7.83 2.49-10.42 5.84c-1.75-.88-1.54-2.45-2.18-3.55-2.88-5-13.21-7.73-18.11-4.68-2.72 1.68-5.3 3.47-6.08 6.89a1.58 1.58 0 0 1-2.68 1c-2.53-1.76-5-3.4-8.27-2-2.58 1.14-5.21 2.24-6.42 5-6.88-2.55-8.54-2-12.48 4.28-.75 1.19-1.32 2-3.08 1.79-6.33-.8-6.33-.69-9.46 5.11a3.2 3.2 0 0 1-1.83 1.66c-1.07-.26-1.26-1.4-1.94-2.07-2.9-2.84-4.56-3.15-7.76-.72a4.2 4.2 0 0 1-4.52.83 7.78 7.78 0 0 0-6.74.72 5.48 5.48 0 0 1-4.32.78c-3.11-.94-6.14-1.34-9.27-.12-1.25.49-2.13-.44-3.09-1.14-5-3.65-7.3-3.68-12.05-.14a9.42 9.42 0 0 1-7.86 1.75c-3.61-.71-7-.28-9.6 2.69a3.86 3.86 0 0 1-3.92 1.26c-4.09-.5-8-.47-11.66 2.61-2.6 2.19-6.51 2.12-10.24 2.42 1.13 1.76 2.7 1.74 4.28 1.8s3.53-.38 4.36.42c3.51 3.35 8.31 3.86 12.42 5.41 4.95 1.85 10.31 5 16.14 2.2.44-.22 1.15-.64 1.37-.47 4.07 3 8.31-.31 12.43.37a7.34 7.34 0 0 0 2.46-.19c1.23-.25 2-2.22 3.51-1.2s3.36 1.89 4.48 3.79c4.12 7 8.34 7.53 15.2 2.09 2.12 1.2 3.85 3.47 6.7 3.56s5-1.53 6.94-3.45c1.59.8 1.74 2.44 2.61 3.56 3.22 4.13 6.86 4.89 11.33 2.28.29-.16.51-.44.8-.6 2.64-1.47 5.42-1.43 6.36.06s-.94 3.13-4.18 4.33a28.22 28.22 0 0 0-3.12 1.54c-.44.23-1.05.81-1.26.69-3.16-1.87-6.77-.75-10.06-1.61a1.57 1.57 0 0 1-.45-.22c-3.33-2.23-6.45 2.05-10 .13s-6.78-.54-9.49 2.19c-1.12 1.12-2.13.19-3.19-.15-4.3-1.38-6.87-.49-9.37 3.23-1.88 2.79-4.52 3.33-7.11 1.46-5-3.6-8.52-3.35-12.77.93-1 1-2 2.17-3.11 3.43-1.42-1.5-2.67-3-4.11-4.32-3.72-3.38-7.79-3.4-11.69-.19-3.29 2.71-3.35 2.77-6.24.19s-6-3.55-9.17-1.77c-4.34 2.43-7.63.23-11.46-1.16-4.23-1.55-8.09-4.22-12.75-4.53a4.33 4.33 0 0 1-3.19-1.13c-3.28-3.57-7.49-3.15-11.64-2.63a14.62 14.62 0 0 1-8.94-1.67 16.82 16.82 0 0 0-15.33-.17c-1.86.86-2.9 1.09-4.13-.51-4.74-6.21-11.66-4.3-16.36.59-.81.84-1.42 1.87-2.27 2.65-1.31 1.19-2.69 1.23-3.78-.36-.74-1.09-1.29-2.34-2.12-3.36-5.09-6.19-11.9-6.12-16.89.19a40.21 40.21 0 0 0-2.49 4c-2.78-2.11-5-4.86-9-4.69-3.18.14-5.89.77-8.06 3.18-1 1.12-2.24 2-3.13 3.23-1.39 1.86-2.66 3.2-5.29 1.91-1.1-.53-2.63-.24-4-.22a8.53 8.53 0 0 1-5.15-1.41c-3.87-2.52-8-2.51-11.49.65-1.78 1.59-3.26 1.32-5.39 1.05-3.63-.48-7.37-.24-10.17-3.09-2.36-2.41-4.92-4.39-9.06-4.53 2-2.84 3.58-4.39 6.53-4.82 4.54-.66 9-2.34 13.53-.09.76.37 1.61-.22 2.41-.32 4.31-.54 8.29-2.95 13-1.58 2.71.79 4.85-2.77 7.87-1.89.18-1.84-1-1.76-1.87-1.94-4.5-.89-9.17-1.23-13-4.33a2.65 2.65 0 0 0-3.28-.16c-2.21 1.53-4.43 1.09-6.57.09-5.36-2.5-11.54-3.09-16.29-7-.66-.54-1.81-.89-2.34-.36-3 3-7.42.8-10.57 3.09-.94.68-1.87.27-2.82-.15-2-.88-4-1.59-6-2.49-5.18-2.4-5.53-2.33-9 2.83-2.48-1.79-4.54-4.3-7.79-4.85-1-.17-1.46-1.27-1.89-2.19C7.82 109.35 4.28 108 0 108v-8a12 12 0 0 0 9.68.2 5.56 5.56 0 0 1 6.26.92 20.8 20.8 0 0 0 12.34 4.75c2.92.07 5.84-1.08 8.86-.93 1.26.06 2-.76 2.73-1.83 2.45-3.67 6.24-5.38 10.21-3.79 3 1.2 6.07 1.58 9.12 2.21 5.81 1.2 11.27.56 15.69-3.93 1.12-1.14 2.51-2.14 4-1.39 2.92 1.5 5.63.29 8.22-.48 3.42-1 6-.46 8.49 2.08 3.05 3 6.66 3.08 9.74.07a6 6 0 0 1 4.24-1.88c5.91-.38 11.91-.28 17.58-2.46a2.16 2.16 0 0 1 1.43-.11c5.33 2.06 8.34-1.62 11.52-4.7.89-.86 1.52-1.77 2.91-1.18 2.58 1.12 4.85.16 7.11-1.06 1.44-.78 2.82-1.7 4.63-.58 3.7 2.28 6.69.55 9.26-2.11 1-1.07 1.79-1.76 3.37-1.14 2.52 1 4.56-.29 6.31-1.9 1-.93 2.78-1.81 1.68-3.65-.94-1.57-2.18-2.17-4.19-1.24-2.61 1.21-5 .49-7.14-1.6-4-3.93-5-4-10.07-1.73-1.31.59-2.57 1.88-4.15.87-3.91-2.49-7.45-1.34-10.5 1.37-1.42 1.25-2.37.83-3.48.14a15.34 15.34 0 0 1-2.67-2.23c-1.16-1.14-2.16-1.87-3.84-.6-2.12 1.6-4.34 1.38-6.31-.52-.71-.67-1.39-1.58-2.56-1.21-1.56.5-2.06-.53-2.6-1.61a8.21 8.21 0 0 0-15 .46 6 6 0 0 1-1 1.22c-2.4-1.41-4.52-3.64-7.49-3.24a4.45 4.45 0 0 1-3.51-1.09c-2.89-2-6-3-9.31-.9-.86.53-1.74.88-2.6-.24-2.91-3.8-7.39-3.3-11.37-3.73C66 61 65 61.06 64.17 59.46c-1.47-2.87-3.86-4.06-7-3a2.61 2.61 0 0 1-2.74-.55c-3.2-2.62-6.79-2.15-10.26-.91-2.15.76-3.91.27-4.68-1.46C38.27 50.92 36 49.67 34 48a43 43 0 0 1 5.41.56c5.24.78 10.67 1.72 14.72-3.06a5 5 0 0 1 .92.74c2.24 3.07 4.69 5.37 8.68 2.62.63-.43 1.17-.05 1.81.15 5.38 1.75 8.4.69 11.28-3.93.5-.81.46-1.74 1.93-1.69 3.64.12 7.29-.05 10.41-2.42a2.4 2.4 0 0 1 2.33-.61c2.9 1.43 5.46-.23 8.19-.63 3.13-.45 5.39-2.65 8.37-3.4-4-.66-8.49.75-11.66-3a1 1 0 0 0-.92-.24c-3.12 1.75-6.19.09-9.27-.06a3.86 3.86 0 0 0-2.74 1c-.66.56-1.58 1.14-2.24.49-2.61-2.6-6.73-1.66-9.34-4.12-2-1.87-4.25-1.67-6.52-1-3.66 1.14-6.94 1.28-10.61-.75-2.49-1.37-4.86-4.12-8-3.53C41 26.21 36.19 24 31.28 21.82c-2.63-1.16-5.15-1.48-7.31.75-1.59 1.64-2.76 1.17-4.17-.21s-2.68-2.4-3.87-3.8c-1.66-2-3.31-4.4-6.61-3.28-1.1.38-1.38-.59-1.8-1.26C5.79 11.23 3.14 10.16 0 10V0h512v10c-2 .38-4.08.84-4.81 3-.8 2.37-1.34 4.41-4.69 3.21-1.4-.51-2 1.5-3 2.22-1.22.87-2.1 2.41-4.28 1.75-6-1.83-12-2.74-17.26 2.17a2.09 2.09 0 0 1-1.36.54c-4.19-.29-7.69 3.07-12 2.26-.84-.16-1.84.65-2.79.93-3.55 1.07-6.69 3.44-10.72 3.14a13 13 0 0 0-3.4.12 2.43 2.43 0 0 0-2 2c-.13 1.32 1.05 1.6 2 1.61 1.72 0 3.19.79 4.78 1.22 4.87 1.32 9.53 3.71 14.85 2.88a9.3 9.3 0 0 1 6.26 1.23 5.54 5.54 0 0 0 4.82.43c2.85-1 4.75-.45 5.87 2.58.61 1.64 2.37 2.44 3.59 1 2.69-3.09 2.83-.35 4.25 1.19 2.51 2.72 2.09 5.09.29 7.71-.64.94.11 2.35-1.33 3.23a6.42 6.42 0 0 0-7.53-2.1c-1.5.51-2.4 0-3.57-.79-3.34-2.38-5-2.31-7.69.77-2 2.19-3.69 3.89-7 2.76-1.56-.54-2.67 1.05-4 1.7-2.32 1.16-4.44 2.84-7.44 1.45-1.92-.89-3.83 0-5.36 1.66-1.21 1.3-2.28 3-4.36 3.09a4.26 4.26 0 0 0-4.07 3.12c-.55 1.67-1.44 2.05-3 1.46-7.74-2.9-14.38 2.73-21.74 2.85-.14 0-.29.16-.41.27-3.39 3-7.14 4.67-11.84 3.43-1.63-.43-2.8.82-3.63 2.15-.53.86 0 1.57.52 2.22a3.65 3.65 0 0 0 4 1.33 3.39 3.39 0 0 0 1.65-1.07c1.27-1.59 2.33-.95 3.82-.17a30.49 30.49 0 0 1 4.19 2.53c3.22 2.42 7.59 2.76 10.62 5.72a3.1 3.1 0 0 0 2.88.07c3-1.7 6.08-.89 9.13-.85a11.54 11.54 0 0 0 6.76-1.54 3.54 3.54 0 0 1 4.49.16c2.43 1.68 5.29 2.24 7.92.35 2.17-1.56 3.26-.7 4.25 1.28a6.52 6.52 0 0 0 5.71 3.51c6.24.14 12.54.86 18.74-.66 1-.24 2-.89 3.19.21a8.86 8.86 0 0 0 11.3 1.09c2.63 5 5.72 8.77 11.55 8.81a5.32 5.32 0 0 1 1.85.77z"/>
    <path fill="#71c9d2" d="M34 48c2 1.66 4.28 2.91 5.46 5.54.77 1.73 2.53 2.22 4.68 1.46 3.47-1.24 7.06-1.71 10.26.91a2.61 2.61 0 0 0 2.74.55c3.18-1.07 5.57.12 7 3C65 61.06 66 61 67.63 61.19c4 .43 8.46-.07 11.37 3.73.86 1.12 1.74.77 2.6.24 3.35-2.09 6.42-1.06 9.31.9a4.45 4.45 0 0 0 3.51 1.09c3-.4 5.09 1.83 7.49 3.24a6 6 0 0 0 1-1.22 8.21 8.21 0 0 1 15-.46c.54 1.08 1 2.11 2.6 1.61 1.17-.37 1.85.54 2.56 1.21 2 1.9 4.19 2.12 6.31.52 1.68-1.27 2.68-.54 3.84.6a15.34 15.34 0 0 0 2.67 2.23c1.11.69 2.06 1.11 3.48-.14 3-2.71 6.59-3.86 10.5-1.37 1.58 1 2.84-.28 4.15-.87 5-2.29 6.09-2.2 10.07 1.73 2.12 2.09 4.53 2.81 7.14 1.6 2-.93 3.25-.33 4.19 1.24 1.1 1.84-.67 2.72-1.68 3.65-1.75 1.61-3.79 2.9-6.31 1.9-1.58-.62-2.34.07-3.37 1.14-2.57 2.66-5.56 4.39-9.26 2.11-1.81-1.12-3.19-.2-4.63.58-2.26 1.22-4.53 2.18-7.11 1.06-1.39-.59-2 .32-2.91 1.18-3.18 3.08-6.19 6.76-11.52 4.7a2.16 2.16 0 0 0-1.43.11c-5.67 2.18-11.67 2.08-17.58 2.46a6 6 0 0 0-4.27 1.92c-3.08 3-6.69 3-9.74-.07-2.53-2.54-5.07-3.09-8.49-2.08-2.59.77-5.3 2-8.22.48-1.46-.75-2.85.25-4 1.39-4.42 4.49-9.88 5.13-15.69 3.93-3.05-.63-6.12-1-9.12-2.21-4-1.59-7.76.12-10.21 3.79-.72 1.07-1.47 1.89-2.73 1.83-3-.15-5.94 1-8.86.93a20.8 20.8 0 0 1-12.34-4.75 5.56 5.56 0 0 0-6.26-.92A12 12 0 0 1 0 100V10c3.14.16 5.79 1.23 7.52 4 .42.67.7 1.64 1.8 1.26 3.3-1.12 4.95 1.31 6.61 3.28 1.19 1.4 2.57 2.54 3.87 3.8s2.58 1.85 4.17.21c2.16-2.23 4.68-1.91 7.31-.75 4.91 2.2 9.72 4.41 15.48 3.35 3.14-.59 5.51 2.16 8 3.53 3.67 2 7 1.89 10.61.75 2.27-.71 4.55-.91 6.52 1 2.61 2.46 6.73 1.52 9.34 4.12.66.65 1.58.07 2.24-.49a3.86 3.86 0 0 1 2.74-1c3.08.15 6.15 1.81 9.27.06a1 1 0 0 1 .92.24c3.17 3.74 7.64 2.33 11.66 3-3 .75-5.24 3-8.37 3.4-2.73.4-5.29 2.06-8.19.63a2.4 2.4 0 0 0-2.33.61c-3.12 2.37-6.77 2.54-10.41 2.42-1.47-.05-1.43.88-1.93 1.69-2.83 4.58-5.9 5.64-11.28 3.89-.64-.2-1.18-.58-1.81-.15-4 2.75-6.44.45-8.68-2.62a5 5 0 0 0-.92-.74c-4 4.78-9.48 3.84-14.72 3.06A43 43 0 0 0 34 48a7.25 7.25 0 0 0-.12-1c-.17-.64-.46-1.24-1.2-1.32-.16 0-.49.36-.53.6a1.24 1.24 0 0 0 .89 1.49c.31.14.64.17.96.23zM512 100a5.32 5.32 0 0 0-1.83-.77c-5.83 0-8.92-3.76-11.55-8.81a8.86 8.86 0 0 1-11.3-1.09c-1.21-1.1-2.17-.45-3.19-.21-6.2 1.52-12.5.8-18.74.66a6.52 6.52 0 0 1-5.71-3.51c-1-2-2.08-2.84-4.25-1.28-2.63 1.89-5.49 1.33-7.92-.35a3.54 3.54 0 0 0-4.49-.16 11.54 11.54 0 0 1-6.69 1.52c-3.05 0-6.17-.85-9.13.85a3.1 3.1 0 0 1-2.88-.07c-3-3-7.4-3.3-10.62-5.72a30.49 30.49 0 0 0-4.19-2.53c-1.49-.78-2.55-1.42-3.82.17a3.39 3.39 0 0 1-1.69 1.11 3.65 3.65 0 0 1-4-1.33c-.55-.65-1-1.36-.52-2.22.83-1.33 2-2.58 3.63-2.15 4.7 1.24 8.45-.38 11.84-3.43.12-.11.27-.27.41-.27 7.36-.12 14-5.75 21.74-2.85 1.56.59 2.45.21 3-1.46a4.26 4.26 0 0 1 4.1-3.1c2.08-.13 3.15-1.79 4.36-3.09 1.53-1.65 3.44-2.55 5.36-1.66 3 1.39 5.12-.29 7.44-1.45 1.31-.65 2.42-2.24 4-1.7 3.26 1.13 5-.57 7-2.76 2.73-3.08 4.35-3.15 7.69-.77 1.17.84 2.07 1.3 3.57.79a6.42 6.42 0 0 1 7.53 2.1c1.44-.88.69-2.29 1.33-3.23 1.8-2.62 2.22-5-.29-7.71-1.42-1.54-1.56-4.28-4.25-1.19-1.22 1.4-3 .6-3.59-1-1.12-3-3-3.62-5.87-2.58a5.54 5.54 0 0 1-4.82-.43 9.3 9.3 0 0 0-6.33-1.32c-5.32.83-10-1.56-14.85-2.88-1.59-.43-3.06-1.21-4.78-1.22-1 0-2.16-.29-2-1.61a2.43 2.43 0 0 1 2-2 13 13 0 0 1 3.4-.12c4 .3 7.17-2.07 10.72-3.14.95-.28 1.95-1.09 2.79-.93 4.33.81 7.83-2.55 12-2.26a2.09 2.09 0 0 0 1.36-.54c5.23-4.91 11.26-4 17.26-2.17 2.18.66 3.06-.88 4.28-1.75 1-.72 1.59-2.73 3-2.22 3.35 1.2 3.89-.84 4.69-3.21.73-2.15 2.82-2.61 4.81-3z"/>
    <path fill="#61a4c2" d="M34 48c-.31-.07-.64-.1-.94-.2a1.24 1.24 0 0 1-.89-1.49c0-.24.37-.62.53-.6.74.08 1 .68 1.2 1.32a7.25 7.25 0 0 1 .1.97z"/>
</svg>